# AST/ASF file generated using VICON BodyLanguage
# -----------------------------------------------
:version 1.10
:name VICON
:units
  mass 1.0
  length 0.45
  angle deg
:documentation
   .ast/.asf automatically generated from VICON data using
   VICON BodyBuilder and BodyLanguage model FoxedUp or BRILLIANT.MOD
:root
   order TX TY TZ RX RY RZ
   axis XYZ
   position 0 0 0  
   orientation 0 0 0 
:bonedata
  begin
     id 1 
     name lhipjoint
     direction 0.567725 -0.736092 0.368589 
     length 2.42353 
     axis 0 0 0  XYZ
  end
  begin
     id 2 
     name lfemur
     direction 0.34202 -0.939693 0  
     length 7.24894  
     axis 0 0 20  XYZ
    dof rx ry rz
    limits (-160.0 20.0)
           (-70.0 70.0)
           (-60.0 70.0)
  end
  begin
     id 3 
     name ltibia
     direction 0.34202 -0.939693 0   
     length 7.6997   
     axis 0 0 20   XYZ
    dof rx
    limits (-10.0 170.0)
  end
  begin
     id 4 
     name lfoot
     direction 0.100767 -0.276854 0.955614   
     length 2.37556   
     axis -90 7.62852e-016 20   XYZ
    dof rx rz
    limits (-45.0 90.0)
           (-70.0 20.0)
  end
  begin
     id 5 
     name ltoes
     direction 1.53592e-011 -4.21894e-011 1   
     length 1.18363   
     axis -90 7.62852e-016 20   XYZ
    dof rx
    limits (-90.0 20.0)
  end
  begin
     id 6 
     name rhipjoint
     direction -0.556459 -0.742938 0.372017   
     length 2.4012  
     axis 0 0 0  XYZ 
  end
  begin
     id 7 
     name rfemur
     direction -0.34202 -0.939693 0   
     length 7.5119   
     axis 0 0 -20   XYZ
    dof rx ry rz
    limits (-160.0 20.0)
           (-70.0 70.0)
           (-70.0 60.0)
  end
  begin
     id 8 
     name rtibia
     direction -0.34202 -0.939693 0   
     length 7.50155   
     axis 0 0 -20   XYZ
    dof rx
    limits (-10.0 170.0)
 end
 begin
     id 9 
     name rfoot
     direction -0.118427 -0.325376 0.938139   
     length 2.32487  
     axis -90 -7.62852e-016 -20   XYZ
    dof rx rz
    limits (-45.0 90.0)
           (-20.0 70.0)
  end
  begin
     id 10 
     name rtoes
     direction -1.53525e-011 -4.21868e-011 1   
     length 1.15233   
     axis -90 -7.62852e-016 -20   XYZ
    dof rx
    limits (-90.0 20.0)
  end
  begin
     id 11 
     name lowerback
     direction 0.0287568 0.999577 -0.00434502   
     length 2.15243   
     axis 0 0 0   XYZ
    dof rx ry rz
    limits (-20.0 45.0)
           (-30.0 30.0)
           (-30.0 30.0)
  end
  begin
     id 12 
     name upperback
     direction 0.0294009 0.99956 0.00404628   
     length 2.15427   
     axis 0 0 0   XYZ
    dof rx ry rz
    limits (-20.0 45.0)
           (-30.0 30.0)
           (-30.0 30.0)
  end
  begin
     id 13 
     name thorax
     direction 0.0151014 0.999868 0.0059419   
     length 2.14898   
     axis 0 0 0   XYZ
    dof rx ry rz
    limits (-20.0 45.0)
           (-30.0 30.0)
           (-30.0 30.0)
  end
  begin
     id 14 
     name lowerneck
     direction -0.0249197 0.989906 0.139515   
     length 1.6861   
     axis 0 0 0   XYZ
    dof rx ry rz
    limits (-20.0 45.0)
           (-30.0 30.0)
           (-30.0 30.0)
  end
  begin
     id 15 
     name upperneck
     direction 0.0438463 0.988795 -0.142693   
     length 1.71276   
     axis 0 0 0   XYZ
    dof rx ry rz
    limits (-20.0 45.0)
           (-30.0 30.0)
           (-30.0 30.0)
  end
  begin
     id 16
     name head
     direction 0.0148499 0.997845 -0.0639186  
     length 1.7209  
     axis 0 0 0   XYZ
    dof rx ry rz
    limits (-20.0 45.0)
           (-30.0 30.0)
           (-30.0 30.0)
  end
  begin
     id 17 
     name lclavicle
     direction 0.940298 0.323464 -0.105876  
     length 3.9048  
     axis 0 0 0   XYZ
    dof ry rz
    limits (-20.0 10.0)
           (0.0 20.0)
  end
  begin
     id 18 
     name lhumerus
     direction 1 -4.48954e-011 -4.9675e-028   
     length 4.6851   
     axis 180 -30 -90   XYZ
    dof rx ry rz
    limits (-60.0 90.0)
           (-90.0 90.0)
           (-90.0 90.0)
  end
  begin
     id 19
     name lradius
     direction 1 -4.48992e-011 -1.03359e-026   
     length 3.39626   
     axis 180 -30 -90   XYZ
    dof rx
    limits (-10.0 170.0)
  end
  begin
     id 20
     name lwrist
     direction 1 -4.48906e-011 -1.67336e-026   
     length 1.69813   
     axis 9.90442e-015 90 90   XYZ
    dof ry
    limits (-180.0 0.0)
 end
  begin
     id 21 
     name lhand
     direction 1 -4.49006e-011 -3.34673e-026   
     length 0.486078   
     axis 2.1355e-014 90 90   XYZ
    dof rx rz
    limits (-90.0 90.0)
           (-45.0 45.0)
  end
  begin
     id 22 
     name lfingers
     direction 1 -4.48992e-011 -6.69345e-026   
     length 0.391889   
     axis 4.27099e-014 90 90   XYZ
    dof rx
    limits (0.0 90.0)
  end
  begin
     id 23
     name lthumb
     direction 0.707107 -6.34926e-011 0.707107   
     length 0.562676   
     axis -90 45 2.85299e-015   XYZ
    dof rx rz
    limits (-45.0 45.0)
           (-45.0 45.0)
  end
  begin
     id 24 
     name rclavicle
     direction -0.882459 0.414895 -0.221648   
     length 3.44646  
     axis 0 0 0   XYZ 
    dof ry rz
    limits (-10.0 20.0)
           (-20.0 0.0)
  end
  begin
     id 25 
     name rhumerus
     direction -1 -4.48962e-011 -2.37984e-027  
     length 5.55576   
     axis 180 30 90   XYZ
    dof rx ry rz
    limits (-90.0 60.0)
           (-90.0 90.0)
           (-90.0 90.0)
  end
  begin
     id 26 
     name rradius
     direction -1 -4.48982e-011 -6.86791e-027   
     length 3.32774   
     axis 180 30 90   XYZ
    dof rx
    limits (-10.0 170.0)
  end
  begin
     id 27 
     name rwrist
     direction -1 -4.48961e-011 -1.67336e-026   
     length 1.66387   
     axis 9.90442e-015 -90 -90   XYZ
    dof ry
    limits (-180.0 0.0)
  end
  begin
     id 28
     name rhand
     direction -1 -4.4897e-011 -3.34673e-026   
     length 0.507628   
     axis 2.1355e-014 -90 -90   XYZ
    dof rx rz
    limits (-90.0 90.0)
           (-45.0 45.0)
  end
  begin
     id 29
     name rfingers
     direction -1 -4.48854e-011 -6.69345e-026   
     length 0.409263   
     axis 4.27099e-014 -90 -90   XYZ
    dof rx
    limits (0.0 90.0)
  end
  begin
     id 30
     name rthumb
     direction -0.707107 -6.34913e-011 0.707107   
     length 0.587622   
     axis -90 -45 -2.85299e-015   XYZ
    dof rx rz
    limits (-45.0 45.0)
           (-45.0 45.0)
  end
:hierarchy
  begin
    root lhipjoint rhipjoint lowerback
    lhipjoint lfemur
    lfemur ltibia
    ltibia lfoot
    lfoot ltoes
    rhipjoint rfemur
    rfemur rtibia
    rtibia rfoot
    rfoot rtoes
    lowerback upperback
    upperback thorax
    thorax lowerneck lclavicle rclavicle
    lowerneck upperneck
    upperneck head
    lclavicle lhumerus
    lhumerus lradius
    lradius lwrist
    lwrist lhand lthumb
    lhand lfingers
    rclavicle rhumerus
    rhumerus rradius
    rradius rwrist
    rwrist rhand rthumb
    rhand rfingers
  end

#!OML:ASF E:\motion texture\Top Level 1\Subject 1\Session 1\male.ASF
:FULLY-SPECIFIED
:DEGREES
1
root 42.3512 17.9604 6.74726 113.503 -84.717 -105.32
lowerback -4.09413 -0.697002 2.55873
upperback -3.68544 -1.08569 2.56165
thorax -1.48908 -0.612637 1.16872
lowerneck -10.6575 -9.82874 -14.377
upperneck 13.5115 -12.6964 10.0705
head 7.47213 -6.123 4.236
rclavicle -3.11843e-015 8.94531e-015
rhumerus -33.5819 -8.00205 -77.5133
rradius 25.4807
rwrist 10.2496
rhand -12.1298 -23.685
rfingers 7.12502
rthumb 13.9319 -53.1983
lclavicle -3.11843e-015 8.94531e-015
lhumerus -40.4545 16.2217 76.0722
lradius 27.8685
lwrist -23.3321
lhand -11.6593 18.9252
lfingers 7.12502
lthumb 14.3853 48.4067
rfemur -10.7985 1.40701 27.5828
rtibia 14.1236
rfoot -7.20652 -15.2763
rtoes 17.7235
lfemur -9.47058 -1.89449 -14.3907
ltibia 12.7563
lfoot -12.2738 10.039
ltoes 2.47739
2
root 42.3575 17.9589 6.74171 113.87 -84.6817 -105.672
lowerback -4.33427 -0.770372 2.53079
upperback -3.53951 -1.1979 2.71756
thorax -1.20067 -0.664303 1.3351
lowerneck -10.4587 -9.56595 -14.4435
upperneck 13.2043 -12.3206 10.0783
head 7.29466 -5.95101 4.31092
rclavicle 4.20026e-014 -5.84427e-014
rhumerus -33.432 -7.42731 -77.5805
rradius 25.5614
rwrist 9.98181
rhand -12.3018 -23.4226
rfingers 7.12502
rthumb 13.7662 -52.9472
lclavicle 4.20026e-014 -5.84427e-014
lhumerus -40.5363 16.0631 76.4938
lradius 28.3489
lwrist -22.8494
lhand -11.5784 18.8056
lfingers 7.12502
lthumb 14.4632 48.2816
rfemur -10.8193 1.42017 27.6219
rtibia 14.1011
rfoot -7.16995 -15.1339
rtoes 18.2538
lfemur -9.53898 -1.95891 -14.3725
ltibia 12.8358
lfoot -12.4016 10.128
ltoes 2.24103
3
root 42.3628 17.9579 6.7376 114.346 -84.7299 -106.144
lowerback -4.49573 -0.895488 2.43688
upperback -3.62132 -1.37231 2.88881
thorax -1.18786 -0.751224 1.55647
lowerneck -9.51269 -9.15628 -14.7782
upperneck 12.7902 -11.8257 10.1801
head 6.96133 -5.754 4.50211
rclavicle 3.46631e-015 -4.17448e-015
rhumerus -33.7028 -6.64793 -77.5665
rradius 25.6701
rwrist 9.92878
rhand -12.2051 -23.6729
rfingers 7.12502
rthumb 13.8593 -53.1911
lclavicle 3.46631e-015 -4.17448e-015
lhumerus -41.0624 16.2417 76.6291
lradius 28.632
lwrist -22.7269
lhand -11.4833 18.846
lfingers 7.12502
lthumb 14.5549 48.3154
rfemur -10.8273 1.28026 27.5495
rtibia 14.0615
rfoot -7.19251 -15.0099
rtoes 17.8725
lfemur -9.59835 -2.09235 -14.4696
ltibia 12.9219
lfoot -12.5379 10.3148
ltoes 2.06498
4
root 42.3684 17.9564 6.73237 115.247 -84.7103 -107.025
lowerback -4.00944 -0.744574 2.60204
upperback -4.01705 -1.14809 2.77552
thorax -1.87555 -0.652392 1.36995
lowerneck -9.34892 -8.99442 -14.3489
upperneck 13.4394 -11.6671 9.63007
head 7.05946 -5.71021 4.27943
rclavicle 1.30515e-014 -7.95139e-015
rhumerus -34.5562 -6.82087 -77.4473
rradius 25.783
rwrist 9.92525
rhand -12.3002 -23.262
rfingers 7.12502
rthumb 13.7677 -52.7865
lclavicle 1.30515e-014 -7.95139e-015
lhumerus -41.7021 15.3489 76.7845
lradius 28.9279
lwrist -22.4175
lhand -11.6061 18.9095
lfingers 7.12502
lthumb 14.4366 48.3874
rfemur -10.8606 1.2293 27.5506
rtibia 14.0345
rfoot -7.13411 -14.8522
rtoes 17.7594
lfemur -9.66711 -2.12849 -14.4793
ltibia 13.0129
lfoot -12.6464 10.2867
ltoes 2.18707
5
root 42.3725 17.9552 6.72592 116.39 -84.7094 -108.172
lowerback -4.3185 -0.41126 2.6056
upperback -2.8367 -0.723885 2.57634
thorax -0.490903 -0.412588 1.15607
lowerneck -12.7926 -9.71364 -13.3865
upperneck 13.6696 -12.3172 9.57286
head 7.74734 -5.85272 3.8868
rclavicle 5.34234e-015 -2.78299e-014
rhumerus -32.4332 -8.36618 -77.5363
rradius 25.6296
rwrist 10.1494
rhand -12.2362 -23.3411
rfingers 7.12502
rthumb 13.8293 -52.8613
lclavicle 5.34234e-015 -2.78299e-014
lhumerus -38.8465 14.8927 77.7304
lradius 28.5822
lwrist -22.5808
lhand -11.5889 18.7272
lfingers 7.12502
lthumb 14.4532 48.2039
rfemur -10.8796 1.24715 27.5273
rtibia 14.0512
rfoot -7.1109 -14.7285
rtoes 17.918
lfemur -9.65616 -2.08711 -14.4885
ltibia 13.0101
lfoot -12.5962 10.0827
ltoes 2.6876
6
root 42.377 17.9538 6.72054 117.194 -84.7124 -108.974
lowerback -4.3366 -0.316969 2.6034
upperback -2.59029 -0.601358 2.55881
thorax -0.227774 -0.345811 1.1419
lowerneck -13.5286 -9.7388 -13.0771
upperneck 13.7778 -12.2916 9.42959
head 7.8775 -5.81042 3.76632
rclavicle 9.34288e-015 -2.20651e-014
rhumerus -32.0669 -8.59692 -77.5366
rradius 25.6555
rwrist 10.1648
rhand -12.2396 -23.3061
rfingers 7.12502
rthumb 13.8261 -52.8266
lclavicle 9.34288e-015 -2.20651e-014
lhumerus -38.3375 14.5089 78.1478
lradius 28.7165
lwrist -22.4556
lhand -11.6033 18.6502
lfingers 7.12502
lthumb 14.4392 48.1279
rfemur -10.8983 1.21336 27.5048
rtibia 14.0491
rfoot -7.09762 -14.605
rtoes 17.9125
lfemur -9.67812 -2.09678 -14.5091
ltibia 13.0361
lfoot -12.5741 10.0333
ltoes 2.94306
7
root 42.3811 17.9525 6.71528 117.947 -84.7189 -109.727
lowerback -4.35895 -0.236709 2.59794
upperback -2.36792 -0.497789 2.54632
thorax 0.0130515 -0.289156 1.13484
lowerneck -14.1472 -9.73912 -12.8086
upperneck 13.8594 -12.2466 9.31232
head 7.98084 -5.76339 3.66861
rclavicle -8.41108e-015 3.77691e-015
rhumerus -31.7464 -8.79105 -77.5393
rradius 25.6843
rwrist 10.1801
rhand -12.2924 -23.299
rfingers 7.12502
rthumb 13.7752 -52.823
lclavicle -8.41108e-015 3.77691e-015
lhumerus -37.9116 14.1339 78.532
lradius 28.8614
lwrist -22.3378
lhand -11.6305 18.5623
lfingers 7.12502
lthumb 14.413 48.0418
rfemur -10.9157 1.18075 27.4801
rtibia 14.0546
rfoot -7.09371 -14.4933
rtoes 17.8891
lfemur -9.69126 -2.08537 -14.5262
ltibia 13.0442
lfoot -12.4828 9.96627
ltoes 3.27064
8
root 42.3847 17.9511 6.71014 118.597 -84.7266 -110.381
lowerback -4.39206 -0.176604 2.59511
upperback -2.17569 -0.421804 2.54211
thorax 0.228926 -0.247099 1.13428
lowerneck -14.6112 -9.70719 -12.5883
upperneck 13.9031 -12.1728 9.22173
head 8.04664 -5.70864 3.59792
rclavicle -1.37907e-015 -2.10712e-014
rhumerus -31.4866 -8.92276 -77.5494
rradius 25.7224
rwrist 10.1784
rhand -12.3434 -23.3035
rfingers 7.12502
rthumb 13.7261 -52.8308
lclavicle -1.37907e-015 -2.10712e-014
lhumerus -37.5939 13.773 78.8788
lradius 29.0291
lwrist -22.2138
lhand -11.6577 18.469
lfingers 7.12502
lthumb 14.3869 47.9504
rfemur -10.93 1.15239 27.4585
rtibia 14.0662
rfoot -7.09724 -14.3926
rtoes 17.8779
lfemur -9.69674 -2.05103 -14.5348
ltibia 13.0352
lfoot -12.3198 9.87839
ltoes 3.65514
9
root 42.3879 17.9496 6.70523 119.092 -84.7389 -110.883
lowerback -4.44597 -0.144747 2.58963
upperback -2.01453 -0.384591 2.55436
thorax 0.424624 -0.225186 1.15079
lowerneck -14.8788 -9.63754 -12.4431
upperneck 13.8786 -12.0613 9.1781
head 8.05984 -5.64296 3.56802
rclavicle -7.4917e-015 2.5842e-015
rhumerus -31.2909 -8.96362 -77.5631
rradius 25.7704
rwrist 10.1625
rhand -12.4252 -23.3614
rfingers 7.12502
rthumb 13.6472 -52.894
lclavicle -7.4917e-015 2.5842e-015
lhumerus -37.3931 13.4662 79.1834
lradius 29.2122
lwrist -22.0936
lhand -11.679 18.3755
lfingers 7.12502
lthumb 14.3663 47.8584
rfemur -10.9405 1.12476 27.4375
rtibia 14.0818
rfoot -7.11243 -14.308
rtoes 17.8588
lfemur -9.69647 -1.99974 -14.5379
ltibia 13.0117
lfoot -12.0839 9.78933
ltoes 4.07821
10
root 42.3906 17.948 6.70055 119.43 -84.7537 -111.23
lowerback -4.48445 -0.140839 2.59408
upperback -1.94636 -0.383354 2.57904
thorax 0.516245 -0.223338 1.17335
lowerneck -14.8146 -9.50931 -12.3875
upperneck 13.8006 -11.8959 9.16788
head 7.99994 -5.56499 3.58367
rclavicle 8.26199e-015 -4.96962e-015
rhumerus -31.2813 -8.88708 -77.5678
rradius 25.8389
rwrist 10.118
rhand -12.5176 -23.4087
rfingers 7.12502
rthumb 13.5582 -52.9473
lclavicle 8.26199e-015 -4.96962e-015
lhumerus -37.4304 13.1867 79.4189
lradius 29.4253
lwrist -21.9625
lhand -11.7013 18.2987
lfingers 7.12502
lthumb 14.3449 47.7831
rfemur -10.9471 1.09806 27.4198
rtibia 14.0982
rfoot -7.13221 -14.2374
rtoes 17.8269
lfemur -9.69175 -1.93331 -14.5337
ltibia 12.9752
lfoot -11.7805 9.70247
ltoes 4.53556
11
root 42.3929 17.9464 6.69605 119.588 -84.7707 -111.398
lowerback -4.50803 -0.146402 2.60605
upperback -1.89123 -0.394238 2.60526
thorax 0.586155 -0.227904 1.19282
lowerneck -14.7511 -9.38079 -12.3352
upperneck 13.7435 -11.7304 9.15371
head 7.94723 -5.48746 3.59807
rclavicle -3.70236e-015 -3.1408e-014
rhumerus -31.293 -8.80586 -77.5735
rradius 25.9138
rwrist 10.074
rhand -12.5983 -23.4891
rfingers 7.12502
rthumb 13.4804 -53.0328
lclavicle -3.70236e-015 -3.1408e-014
lhumerus -37.4922 12.9346 79.6292
lradius 29.6226
lwrist -21.8387
lhand -11.7137 18.2339
lfingers 7.12502
lthumb 14.3329 47.7191
rfemur -10.9492 1.07211 27.407
rtibia 14.1143
rfoot -7.15733 -14.1814
rtoes 17.7909
lfemur -9.68406 -1.8539 -14.5221
ltibia 12.9307
lfoot -11.4286 9.61905
ltoes 5.00055
12
root 42.3948 17.9446 6.69177 119.6 -84.7917 -111.423
lowerback -4.50499 -0.159332 2.61934
upperback -1.85685 -0.413457 2.63429
thorax 0.619921 -0.237122 1.21419
lowerneck -14.6792 -9.25549 -12.2967
upperneck 13.7037 -11.5702 9.14481
head 7.90065 -5.4129 3.61549
rclavicle 4.31114e-015 -3.77691e-015
rhumerus -31.3378 -8.72021 -77.572
rradius 25.9919
rwrist 10.0304
rhand -12.6616 -23.5401
rfingers 7.12502
rthumb 13.4194 -53.0879
lclavicle 4.31114e-015 -3.77691e-015
lhumerus -37.5847 12.7198 79.8124
lradius 29.7952
lwrist -21.732
lhand -11.7067 18.1931
lfingers 7.12502
lthumb 14.3397 47.6778
rfemur -10.947 1.04787 27.3949
rtibia 14.1282
rfoot -7.18352 -14.1381
rtoes 17.755
lfemur -9.67112 -1.76901 -14.5082
ltibia 12.8781
lfoot -11.0571 9.53597
ltoes 5.48789
13
root 42.3963 17.9429 6.68768 119.49 -84.8152 -111.327
lowerback -4.44474 -0.178273 2.62912
upperback -1.8625 -0.437168 2.66971
thorax 0.580729 -0.249495 1.24426
lowerneck -14.6021 -9.13194 -12.2684
upperneck 13.7017 -11.4128 9.12716
head 7.86616 -5.34105 3.63091
rclavicle 6.98231e-015 -2.22639e-014
rhumerus -31.445 -8.61642 -77.5582
rradius 26.079
rwrist 9.97147
rhand -12.7033 -23.5897
rfingers 7.12502
rthumb 13.3792 -53.1401
lclavicle 6.98231e-015 -2.22639e-014
lhumerus -37.7365 12.5335 79.9721
lradius 29.9471
lwrist -21.6334
lhand -11.6985 18.164
lfingers 7.12502
lthumb 14.3476 47.6482
rfemur -10.9407 1.0295 27.3844
rtibia 14.1395
rfoot -7.20967 -14.1097
rtoes 17.7267
lfemur -9.65357 -1.68252 -14.4935
ltibia 12.8209
lfoot -10.6894 9.46084
ltoes 5.947
14
root 42.3975 17.9411 6.68381 119.266 -84.8424 -111.117
lowerback -4.3461 -0.201726 2.6347
upperback -1.89694 -0.46435 2.70988
thorax 0.490643 -0.264229 1.28176
lowerneck -14.5297 -9.01037 -12.2405
upperneck 13.7411 -11.2576 9.09066
head 7.84527 -5.27174 3.63921
rclavicle -5.2181e-015 3.37934e-015
rhumerus -31.5972 -8.51081 -77.5301
rradius 26.1731
rwrist 9.9139
rhand -12.7023 -23.6132
rfingers 7.12502
rthumb 13.3801 -53.1635
lclavicle -5.2181e-015 3.37934e-015
lhumerus -37.9332 12.3727 80.1129
lradius 30.0843
lwrist -21.5421
lhand -11.6843 18.1454
lfingers 7.12502
lthumb 14.3612 47.6286
rfemur -10.9306 1.01528 27.3739
rtibia 14.1475
rfoot -7.23346 -14.0953
rtoes 17.7035
lfemur -9.63203 -1.60319 -14.4811
ltibia 12.7633
lfoot -10.3518 9.39874
ltoes 6.36787
